<svg xmlns="http://www.w3.org/2000/svg" xmlns:xlink="http://www.w3.org/1999/xlink" width="500" zoomAndPan="magnify" viewBox="0 0 375 374.999991" height="500" preserveAspectRatio="xMidYMid meet" version="1.0"><defs><g/><clipPath id="01c761c1d5"><path d="M 126.28125 187.5 L 248.53125 187.5 L 248.53125 337.5 L 126.28125 337.5 Z M 126.28125 187.5 " clip-rule="nonzero"/></clipPath></defs><rect x="-37.5" width="450" fill="#ffffff" y="-37.499999" height="449.999989" fill-opacity="1"/><rect x="-37.5" width="450" fill="#f07f09" y="-37.499999" height="449.999989" fill-opacity="1"/><g clip-path="url(#01c761c1d5)"><path fill="#ffffff" d="M 198.894531 337.503906 L 195.679688 336.886719 L 193.570312 335.191406 L 193.570312 334.367188 L 192.632812 334.25 L 192.652344 334.003906 L 192.398438 334.234375 L 189.039062 330.875 L 190.179688 330.199219 L 189.898438 329.613281 L 187.789062 328.617188 L 188.9375 327.339844 L 187.871094 327.339844 L 189.074219 324.519531 L 187.816406 324.15625 L 187.816406 318.363281 L 189.335938 318.671875 L 189.316406 317.589844 L 186.703125 317.25 L 189.492188 314.128906 L 189.691406 310.359375 L 190.960938 311.804688 L 191.15625 311.292969 L 191.269531 310.367188 L 191.03125 310.78125 L 189.175781 309.347656 L 190.082031 305.96875 L 190.457031 301.515625 L 190.234375 298.769531 L 192.484375 293.453125 L 193.359375 288.402344 L 193.699219 283.050781 L 193.703125 283.035156 L 195.144531 270.8125 L 194.75 266.265625 L 186.824219 261.246094 L 185.78125 258.40625 L 181.074219 249.234375 L 179.378906 248.339844 L 179.378906 245.53125 L 181.132812 243.214844 L 180.265625 242.539062 L 180.039062 240.507812 L 182.78125 236.371094 L 185.089844 233.46875 L 184.1875 228.597656 L 183.527344 227.605469 L 183.617188 227.003906 L 183.105469 226.789062 L 181.957031 227.703125 L 182.070312 229.246094 L 180.050781 229.246094 L 172.207031 224.367188 L 172.4375 222.886719 L 170.328125 220.558594 L 163.660156 218.476562 L 160.835938 215.695312 L 159.984375 215.695312 L 157.558594 216.5 L 150.984375 214.234375 L 143.273438 209.5625 L 143.859375 207.277344 L 143.105469 204.863281 L 139.878906 201.4375 L 137.917969 200.503906 L 137.917969 199.300781 L 134.261719 195.566406 L 134.417969 196.34375 L 136.464844 198.515625 L 137.476562 201.089844 L 137.601562 202.023438 L 138.277344 202.210938 L 139.570312 203.375 L 138.808594 205.285156 L 137.257812 205.191406 L 136.683594 204.050781 L 133.980469 201.886719 L 134.070312 200.195312 L 132.824219 199.015625 L 131.835938 198.929688 L 129.53125 196.621094 L 131.125 195.890625 L 131.214844 195.59375 L 128.871094 193.679688 L 126.316406 187.855469 L 130.980469 187.5 L 131.363281 188.15625 L 136.664062 190.003906 L 139.792969 190.039062 L 139.792969 189.320312 L 142.902344 189.320312 L 145.875 191.558594 L 146.125 192.949219 L 147.308594 193.765625 L 148.242188 192.472656 L 150.925781 192.472656 L 153.585938 196.714844 L 154.128906 198.347656 L 157.089844 198.90625 L 157.515625 200.433594 L 156.25 201.605469 L 156.40625 206.386719 L 158.6875 210.085938 L 160.734375 211.039062 L 160.789062 211.355469 L 162.523438 210.753906 L 164.667969 210.753906 L 165.96875 208.695312 L 165.769531 207.394531 L 167.609375 206.324219 L 172.941406 206.214844 L 171.480469 209.308594 L 171.195312 212.03125 L 170.460938 212.289062 L 170.191406 214.40625 L 169.828125 214.910156 L 170.34375 215.089844 L 174.507812 214.75 L 177.785156 216.253906 L 177.164062 220.269531 L 177.125 222.867188 L 179.289062 225.253906 L 180.933594 225.320312 L 183.332031 224.007812 L 185.699219 225.214844 L 186.246094 226.023438 L 187.445312 224.796875 L 187.910156 222.664062 L 190.261719 221.878906 L 194.226562 219.964844 L 195.78125 221.316406 L 194.320312 222.410156 L 194.347656 222.5 L 195.15625 221.851562 L 198.691406 221.542969 L 199.546875 223.003906 L 202.15625 222.847656 L 203.9375 223.566406 L 204.863281 222.789062 L 207.449219 222.574219 L 208.285156 223.621094 L 212.160156 226.316406 L 215.4375 229.222656 L 220.132812 229.5625 L 224.785156 232.96875 L 225.191406 234.988281 L 226.660156 236.949219 L 225.5 238.582031 L 228.296875 238.6875 L 228.296875 239.789062 L 229.3125 239.191406 L 233.992188 241.089844 L 234.21875 241.96875 L 235.546875 241.703125 L 237.613281 242.738281 L 240 242.433594 L 244.292969 245.25 L 246.398438 245.515625 L 248.339844 247.355469 L 248.6875 250.714844 L 246.046875 254.695312 L 243.066406 259.292969 L 242.648438 258.957031 L 242.484375 262.917969 L 241.214844 268.085938 L 239.734375 270.839844 L 239.886719 272.265625 L 237.699219 273.4375 L 233.761719 274.496094 L 228.75 277.796875 L 228.34375 278.613281 L 228.386719 282.980469 L 226.425781 284.621094 L 224.859375 287.792969 L 222.871094 289.742188 L 220.402344 293.421875 L 218.484375 294.613281 L 215.851562 294.019531 L 215.046875 293.472656 L 215.851562 294.132812 L 215.6875 295.40625 L 216.660156 296.039062 L 216.519531 297.421875 L 214.75 300.34375 L 210.347656 301.871094 L 208.390625 301.65625 L 208.53125 302.332031 L 208.277344 305.300781 L 205.839844 306.203125 L 206.683594 307.753906 L 205 309.996094 L 204.667969 309.496094 L 203.832031 310.171875 L 203.253906 313.6875 L 200.878906 314.421875 L 200.617188 315.472656 L 201.589844 316.6875 L 203.214844 316.6875 L 203.152344 319.71875 L 200.546875 321.929688 L 200.109375 324.308594 L 198.492188 325.175781 L 199.246094 329.6875 L 198.964844 329.738281 L 200.855469 333.050781 L 205.171875 335.46875 Z M 196.230469 335.691406 L 198.8125 336.183594 L 201.996094 335.152344 L 199.917969 333.992188 L 198.449219 331.417969 L 196.988281 333.148438 L 197.082031 335.449219 L 194.847656 333.417969 L 194.847656 334.578125 Z M 193.992188 333.132812 L 194.621094 333.207031 L 194.320312 332.9375 L 194.433594 330.6875 L 196.15625 328.964844 L 197.777344 328.660156 L 197.082031 324.480469 L 198.960938 323.472656 L 199.375 321.25 L 201.882812 319.113281 L 201.90625 317.96875 L 200.976562 317.96875 L 199.222656 315.773438 L 199.8125 313.414062 L 202.121094 312.699219 L 202.652344 309.484375 L 203.394531 308.882812 L 202.875 308.359375 L 203.742188 307.5625 L 202.929688 307.140625 L 203.066406 303.589844 L 205.746094 304.875 L 207.074219 304.382812 L 207.242188 302.410156 L 206.785156 300.191406 L 210.199219 300.570312 L 213.894531 299.285156 L 215.277344 297.007812 L 215.308594 296.6875 L 214.320312 296.039062 L 214.496094 294.671875 L 213.207031 293.617188 L 212.691406 291.761719 L 215.140625 291.992188 L 216.371094 292.828125 L 218.253906 293.253906 L 219.492188 292.484375 L 221.882812 288.921875 L 223.8125 287.035156 L 225.398438 283.816406 L 227.101562 282.390625 L 227.0625 278.320312 L 227.761719 276.917969 L 233.230469 273.316406 L 237.222656 272.242188 L 238.527344 271.542969 L 238.421875 270.582031 L 240.011719 267.625 L 241.214844 262.738281 L 241.476562 256.382812 L 242.761719 257.414062 L 244.980469 253.992188 L 247.367188 250.390625 L 247.117188 247.957031 L 245.824219 246.730469 L 243.839844 246.484375 L 239.691406 243.761719 L 237.390625 244.054688 L 235.367188 243.042969 L 233.285156 243.460938 L 232.914062 242.035156 L 229.417969 240.613281 L 227.019531 242.03125 L 227.019531 239.921875 L 223.085938 239.769531 L 225.078125 236.972656 L 223.992188 235.523438 L 223.628906 233.707031 L 219.671875 230.808594 L 214.910156 230.464844 L 211.367188 227.320312 L 207.402344 224.5625 L 206.875 223.90625 L 205.371094 224.03125 L 204.167969 225.042969 L 201.941406 224.140625 L 198.839844 224.328125 L 197.996094 222.890625 L 195.648438 223.09375 L 195.152344 223.488281 L 195.578125 224.273438 L 194.457031 226.21875 L 192.261719 225.078125 L 193.257812 223.296875 L 192.855469 222.046875 L 190.742188 223.066406 L 189.003906 223.644531 L 188.613281 225.429688 L 186.0625 228.039062 L 184.992188 226.453125 L 184.863281 227.308594 L 185.394531 228.109375 L 186.453125 233.808594 L 183.816406 237.125 L 181.359375 240.828125 L 181.476562 241.863281 L 182.910156 242.980469 L 180.65625 245.960938 L 180.65625 247.570312 L 182.027344 248.292969 L 186.953125 257.894531 L 187.871094 260.402344 L 195.96875 265.523438 L 196.425781 270.832031 L 196.417969 270.898438 L 194.972656 283.167969 L 194.628906 288.554688 L 193.71875 293.816406 L 191.535156 298.980469 L 191.738281 301.519531 L 191.347656 306.1875 L 190.632812 308.859375 L 190.652344 308.875 L 193.3125 304.261719 L 192.402344 311.601562 L 191.402344 314.246094 L 190.800781 313.558594 L 190.742188 314.648438 L 189.269531 316.296875 L 190.578125 316.46875 L 190.644531 320.246094 L 189.09375 319.929688 L 189.09375 323.195312 L 190.820312 323.6875 L 189.804688 326.066406 L 191.808594 326.066406 L 189.890625 328.195312 L 190.851562 328.652344 L 191.84375 330.703125 L 191.109375 331.136719 L 192.4375 332.46875 L 194.144531 330.910156 Z M 195.742188 332.5 L 195.808594 332.5625 L 195.863281 332.496094 Z M 197.386719 330.632812 L 196.675781 331.195312 L 198.292969 331.144531 L 198.09375 330.796875 Z M 204.238281 306.378906 L 204.683594 306.609375 L 205.214844 306.035156 L 204.269531 305.582031 Z M 180.414062 227.96875 L 180.695312 227.96875 L 180.636719 227.125 L 181.371094 226.539062 L 181.234375 226.613281 L 178.703125 226.507812 L 175.839844 223.355469 L 175.886719 220.160156 L 176.375 217.015625 L 174.28125 216.050781 L 170.175781 216.386719 L 167.792969 215.546875 L 168.964844 213.921875 L 169.292969 211.347656 L 170.007812 211.097656 L 170.234375 208.960938 L 170.90625 207.539062 L 167.96875 207.597656 L 167.167969 208.0625 L 167.308594 208.976562 L 165.371094 212.03125 L 162.742188 212.03125 L 159.789062 213.050781 L 159.589844 211.917969 L 157.800781 211.082031 L 155.140625 206.769531 L 154.953125 201.066406 L 156.074219 200.023438 L 156.074219 200.015625 L 153.15625 199.464844 L 152.421875 197.265625 L 150.21875 193.753906 L 148.898438 193.753906 L 147.613281 195.527344 L 144.964844 193.703125 L 144.707031 192.28125 L 142.476562 190.597656 L 141.070312 190.597656 L 141.070312 191.328125 L 136.441406 191.277344 L 132.085938 189.761719 L 133.574219 190.476562 L 134.980469 194.472656 L 139.195312 198.777344 L 139.195312 199.695312 L 140.644531 200.382812 L 144.234375 204.199219 L 145.1875 207.242188 L 144.746094 208.960938 L 151.527344 213.070312 L 157.566406 215.148438 L 159.777344 214.417969 L 161.359375 214.417969 L 164.335938 217.347656 L 171.042969 219.441406 L 173.792969 222.480469 L 173.597656 223.730469 Z M 183.300781 225.484375 L 183.921875 225.742188 L 183.351562 225.453125 Z M 137.871094 203.566406 L 138.007812 203.839844 L 138.054688 203.730469 Z M 135.292969 201.296875 L 136.324219 202.125 L 136.230469 201.414062 L 135.363281 199.214844 L 133.234375 196.953125 L 132.980469 195.6875 L 132.632812 195.335938 L 132.179688 196.8125 L 131.734375 197.015625 L 132.410156 197.695312 L 133.378906 197.777344 L 135.375 199.667969 Z M 131.789062 192.683594 L 133.652344 194.546875 L 132.542969 191.398438 L 131.550781 190.921875 Z M 129.917969 192.886719 L 131.351562 194.054688 L 130.578125 193.285156 L 129.980469 188.859375 L 128.210938 188.992188 Z M 130.183594 188.84375 L 130.324219 188.914062 L 130.28125 188.835938 Z M 130.183594 188.84375 " fill-opacity="1" fill-rule="nonzero"/></g><path fill="#ffffff" d="M 183.515625 210.609375 L 184.882812 208.789062 L 183.285156 207.558594 L 180.964844 207.105469 L 178.773438 206.046875 L 172.578125 207.089844 L 176.3125 203.59375 L 181.988281 203.59375 L 183.683594 205.007812 L 192.511719 208.96875 Z M 184.171875 206.628906 L 186.660156 208.542969 L 186.496094 208.765625 L 188.234375 208.449219 Z M 181.371094 205.882812 L 183.390625 206.277344 L 183 206.101562 L 181.523438 204.875 L 179.277344 204.875 Z M 176.820312 204.875 L 176.546875 205.128906 L 178.054688 204.875 Z M 176.820312 204.875 " fill-opacity="1" fill-rule="nonzero"/><path fill="#ffffff" d="M 184.195312 213.210938 L 183.597656 210.414062 L 191.289062 212.8125 Z M 184.195312 213.210938 " fill-opacity="1" fill-rule="nonzero"/><path fill="#ffffff" d="M 193.988281 213.207031 L 193.121094 212.589844 L 188.652344 212.695312 L 189.628906 210.710938 L 191.855469 210.710938 L 191.816406 210.636719 L 189.875 208.878906 L 194.648438 208.617188 L 198.914062 210.210938 L 199.738281 212.226562 L 195.273438 212.53125 Z M 193.613281 211.375 L 194.089844 211.710938 L 194.917969 211.277344 L 197.613281 211.089844 L 194.449219 209.90625 L 192.921875 209.992188 Z M 193.613281 211.375 " fill-opacity="1" fill-rule="nonzero"/><path fill="#ffffff" d="M 202.617188 212.910156 L 198.851562 212.589844 L 200.703125 210.871094 L 204.25 211.023438 Z M 202.617188 212.910156 " fill-opacity="1" fill-rule="nonzero"/><path fill="#ffffff" d="M 197.527344 223.109375 L 194.332031 221.671875 L 196.886719 218.476562 Z M 197.527344 223.109375 " fill-opacity="1" fill-rule="nonzero"/><path fill="#ffffff" d="M 210.605469 224.558594 L 208.296875 224.558594 L 207.902344 222.503906 L 210.203125 222.121094 Z M 210.605469 224.558594 " fill-opacity="1" fill-rule="nonzero"/><path fill="#ffffff" d="M 208.433594 329.746094 L 210.046875 326.445312 L 213.300781 326.445312 L 210.769531 329.527344 Z M 208.433594 329.746094 " fill-opacity="1" fill-rule="nonzero"/><path fill="#ffffff" d="M 212.539062 329.929688 L 210.695312 329.171875 L 212.035156 326.234375 L 214.957031 326.234375 L 214.585938 328.707031 L 213.136719 328.945312 Z M 212.855469 327.511719 L 212.765625 327.710938 L 213.460938 327.597656 L 213.472656 327.511719 Z M 212.855469 327.511719 " fill-opacity="1" fill-rule="nonzero"/><g fill="#ffffff" fill-opacity="1"><g transform="translate(53.644128, 168.477073)"><g><path d="M 7.96875 -61 L 15.921875 -61 L 15.921875 -7.78125 L 46.9375 -7.78125 L 46.9375 0 L 7.96875 0 Z M 7.96875 -61 "/></g></g></g><g fill="#ffffff" fill-opacity="1"><g transform="translate(99.464609, 168.477073)"><g><path d="M 46.390625 -11.8125 L 18.453125 -11.8125 L 13.03125 0 L 4.40625 0 L 32.984375 -61.65625 L 60.0625 0 L 51.53125 0 Z M 43.015625 -19.578125 L 32.703125 -42.734375 L 22.015625 -19.578125 Z M 43.015625 -19.578125 "/></g></g></g><g fill="#ffffff" fill-opacity="1"><g transform="translate(155.686144, 168.477073)"><g><path d="M 7.96875 -61 L 15.921875 -61 L 15.921875 -7.78125 L 46.9375 -7.78125 L 46.9375 0 L 7.96875 0 Z M 7.96875 -61 "/></g></g></g><g fill="#ffffff" fill-opacity="1"><g transform="translate(201.506625, 168.477073)"><g><path d="M 7.96875 -61 L 15.921875 -61 L 15.921875 -7.78125 L 46.9375 -7.78125 L 46.9375 0 L 7.96875 0 Z M 7.96875 -61 "/></g></g></g><g fill="#ffffff" fill-opacity="1"><g transform="translate(247.327106, 168.477073)"><g><path d="M 7.96875 0 L 7.96875 -61 L 30.265625 -61 C 32.953125 -61 35.546875 -60.5625 38.046875 -59.6875 C 40.484375 -58.8125 42.640625 -57.5625 44.515625 -55.9375 C 46.503906 -54.25 48.0625 -52.28125 49.1875 -50.03125 C 50.25 -47.789062 50.78125 -45.453125 50.78125 -43.015625 C 50.78125 -40.515625 50.25 -38.171875 49.1875 -35.984375 C 48.0625 -33.734375 46.503906 -31.734375 44.515625 -29.984375 C 42.640625 -28.359375 40.484375 -27.109375 38.046875 -26.234375 C 35.546875 -25.296875 32.953125 -24.828125 30.265625 -24.828125 L 15.921875 -24.828125 L 15.921875 0 Z M 15.921875 -32.703125 L 30.265625 -32.703125 C 32.578125 -32.703125 34.703125 -33.171875 36.640625 -34.109375 C 38.578125 -35.046875 40.140625 -36.296875 41.328125 -37.859375 C 42.453125 -39.421875 43.015625 -41.140625 43.015625 -43.015625 C 43.015625 -44.828125 42.453125 -46.507812 41.328125 -48.0625 C 40.140625 -49.625 38.578125 -50.875 36.640625 -51.8125 C 34.640625 -52.6875 32.515625 -53.125 30.265625 -53.125 L 15.734375 -53.125 Z M 15.921875 -32.703125 "/></g></g></g><g fill="#ffffff" fill-opacity="1"><g transform="translate(295.302773, 168.477073)"><g><path d="M 9.09375 -61 L 16.953125 -61 L 16.953125 0 L 9.09375 0 Z M 9.09375 -61 "/></g></g></g></svg>